<svg xmlns="http://www.w3.org/2000/svg" version="1.1" xmlns:xlink="http://www.w3.org/1999/xlink" xmlns:svgjs="http://svgjs.dev/svgjs" width="100%" height="100%" viewBox="0 0 1000 600"><rect width="1000" height="600" x="0" y="0" fill="#4982"/><g><circle r="166.66666666666666" cx="258.6869455973307" cy="280.90918197571784" fill="#553388" transform="matrix(1.3583960049361246,0,0,1.3583960049361246,0,-81.58592758756465)"/><path d="M293.48028911988894 207.26254162024932Q295.74634032311536 205.9092054849891 299.365727661602 205.9092054849891Q302.9851150000887 205.9092054849891 305.94357073763433 208.96208002266914Q308.87055354180177 212.0149545603492 308.87055354180177 216.10643589950803L308.87055354180177 216.10643589950803Q308.87055354180177 304.702743358986 309.65737687625546 323.1773552519572Q310.4756731440872 341.6204942115501 310.4756731440872 342.0925882122223L310.4756731440872 342.0925882122223Q310.4756731440872 347.0653116859692 307.7375279401886 351.5029952922876Q305.03085566966814 355.90920596522795 301.7261976649629 355.90920596522795Q298.45301259363583 355.90920596522795 296.753474191216 355.56300369806837Q295.05393578879614 355.2168014309088 293.70059965353596 354.77618036361474Q292.3472635182757 354.3355592963207 290.96245444963733 352.95075022768236L290.96245444963733 352.95075022768236L288.6964032464109 350.68469902445594Q287.8151611118228 349.80345688986785 286.33593324305 347.1912034194817Q284.8567053742772 344.5789499490957 283.943990306311 343.00530328018846Q283.0312752383448 341.40018367790316 281.11142630227795 337.43459407225686Q279.1915773662111 333.46900446661056 272.7396260236914 321.2260333825122Q266.28767468117167 309.0145352317919 261.06316774039965 299.25792588456704L261.06316774039965 299.25792588456704Q243.15506864823516 266.40018343778365 227.76480422632227 247.35905874400598L227.76480422632227 247.35905874400598Q227.76480422632227 321.0057228488651 223.6733228871634 349.5516734228426L223.6733228871634 349.5516734228426Q222.98091835284424 354.9964908972617 215.30152260857687 354.9964908972617L215.30152260857687 354.9964908972617Q211.65066233671206 354.9964908972617 209.29019233335117 353.2025336947075Q206.89824939661216 351.3771035587751 206.89824939661216 347.2856222196162Q206.89824939661216 343.22561381383554 208.597787799032 302.4366921557596Q210.29732620145182 261.64777049768384 210.29732620145182 251.54495888329924Q210.29732620145182 241.4736202022929 210.29732620145182 238.76694793177242L210.29732620145182 238.76694793177242Q210.29732620145182 222.4324955085152 212.78368793832527 220.38675483893573Q215.30152260857687 218.37248710273448 218.00819487909735 218.37248710273448L218.00819487909735 218.37248710273448Q230.47147649684274 218.37248710273448 256.0904442666527 259.16140876081033L256.0904442666527 259.16140876081033Q261.06316774039965 267.0925879721028 275.10009602705225 292.33388054137515Q289.16849724708305 317.60664604402547 291.8751695176035 323.4920845857386L291.8751695176035 323.4920845857386L289.16849724708305 229.4509596518415Q289.16849724708305 209.9692138907698 293.48028911988894 207.26254162024932L293.48028911988894 207.26254162024932Z " fill="#ffff" transform="matrix(1.3583960049361246,0,0,1.3583960049361246,0,-81.58592758756465)"/><path d="M523.8887120073302 266.3877782805256L565.7873653965758 266.3877782805256L565.7873653965758 263.66647716453883L565.0835806251999 240.01930884630835Q565.0835806251999 205.9092069269561 581.9744151382217 205.9092069269561L581.9744151382217 205.9092069269561Q589.762966608115 205.9092069269561 592.4842677241019 215.7152747414604L592.4842677241019 215.7152747414604L591.780482952726 266.3877782805256L634.3360021285891 266.3877782805256Q644.1420699430935 268.0768617318279 644.1420699430935 275.490061323654L644.1420699430935 275.490061323654Q644.1420699430935 280.8857445708693 640.1070372538716 285.81223797050063Q636.0250855798913 290.6918123853736 630.3009694393672 292.3808958366758L630.3009694393672 292.3808958366758L591.4520500594172 292.3808958366758Q591.1236171661085 294.72684507459553 591.1236171661085 300.16944730656917L591.1236171661085 300.16944730656917Q591.1236171661085 300.16944730656917 591.1236171661085 316.356497048215L591.1236171661085 316.356497048215Q591.1236171661085 317.3887147128997 591.1236171661085 318.74936527089307L591.1236171661085 318.74936527089307Q591.1236171661085 355.909201199541 574.8896484397042 355.909201199541L574.8896484397042 355.909201199541Q564.4267148385825 355.909201199541 564.4267148385825 344.0856170404258L564.4267148385825 344.0856170404258Q564.4267148385825 309.60016324300636 565.4589325032671 292.3808958366758L565.4589325032671 292.3808958366758L519.8536793181083 292.3808958366758Q508.6869609456106 292.3808958366758 508.6869609456106 283.2786127935474L508.6869609456106 283.2786127935474Q508.6869609456106 277.83601056157374 513.2381024671748 272.44032731435846Q517.789243988739 267.04464406714317 523.8887120073302 266.3877782805256L523.8887120073302 266.3877782805256Z " fill="#f7f7f9" transform="matrix(1.3583960049361246,0,0,1.3583960049361246,0,-81.58592758756465)"/></g></svg>